<?xml version="1.0" encoding="utf-8"?>
<!-- Generator: Adobe Illustrator 26.0.3, SVG Export Plug-In . SVG Version: 6.00 Build 0)  -->
<svg version="1.1" id="Layer_1" xmlns="http://www.w3.org/2000/svg" xmlns:xlink="http://www.w3.org/1999/xlink" x="0px" y="0px"
	 viewBox="0 0 612 884.34" style="enable-background:new 0 0 612 884.34;" xml:space="preserve">
<style type="text/css">
	.st0{fill:#FFFFFF;}
	.st1{fill:none;stroke:#000000;stroke-width:2;stroke-miterlimit:10;}
	.st2{fill:none;stroke:#000000;stroke-miterlimit:10;}
	.st3{fill:none;stroke:#ED1C24;stroke-miterlimit:10;}
	.st4{fill:none;stroke:#2E3192;stroke-miterlimit:10;}
	.st5{fill:none;}
	.st6{fill:#2E3192;}
	.st7{font-family:'MyriadPro-Regular';}
	.st8{font-size:13px;}
	.st9{font-size:12px;}
	.st10{font-size:11px;}
</style>
<rect x="250.18" y="314.04" class="st5" width="56.16" height="18.72"/>
<text transform="matrix(1 0 0 1 250.1763 323.2698)" class="st6 st7 st8">TEXT</text>
<rect x="349.4" y="403.34" class="st5" width="140.81" height="18.72"/>
<text transform="matrix(1 0 0 1 349.3962 412.5664)" class="st6 st7 st8">HIGHLIGHTED TEXT</text>
<rect x="18.88" y="16.66" class="st1" width="581.04" height="849.72"/>
<rect x="50.2" y="32.97" class="st4" width="116.64" height="38.88"/>
<rect x="32.8" y="128.01" class="st4" width="270" height="99.36"/>
<rect x="419.24" y="124.01" class="st4" width="125.92" height="116.06"/>
<line class="st4" x1="37.24" y1="784.85" x2="581.56" y2="784.85"/>
<rect x="62.08" y="795.37" class="st4" width="72.36" height="21.6"/>
<rect x="220.84" y="795.37" class="st4" width="45.36" height="27"/>
<rect x="373.12" y="795.37" class="st4" width="108" height="27"/>
<rect x="40.72" y="169.05" class="st5" width="247.68" height="37.44"/>
<text transform="matrix(1 0 0 1 40.7201 178.2799)"><tspan x="0" y="0" class="st6 st7 st8">Lorem ipsum dolor sit amet, consectetuer </tspan><tspan x="0" y="15.6" class="st6 st7 st8">adipiscing elit, sed diam nonummy nibh </tspan></text>
<rect x="94.75" y="48.99" class="st5" width="46.68" height="15.51"/>
<text transform="matrix(1 0 0 1 94.7462 58.2182)" class="st6 st7 st8">LOGO</text>
<rect x="521.08" y="47.37" class="st5" width="56.16" height="18.72"/>
<text transform="matrix(1 0 0 1 521.0802 56.5998)" class="st6 st7 st8">TEAM</text>
<rect x="222.1" y="803.51" class="st5" width="56.16" height="18.72"/>
<text transform="matrix(1 0 0 1 222.0961 812.0298)" class="st6 st7 st9">NAVBAR</text>
<rect x="50.68" y="146.23" class="st5" width="97.32" height="14.26"/>
<text transform="matrix(1 0 0 1 50.6804 155.4584)" class="st6 st7 st8">SUBHEADER</text>
<rect x="464.32" y="172.68" class="st5" width="56.16" height="18.72"/>
<text transform="matrix(1 0 0 1 464.3203 181.9098)" class="st6 st7 st8">IMAGE</text>
<rect x="76.91" y="387.74" class="st5" width="69.51" height="91.57"/>
<text transform="matrix(1 0 0 1 76.9093 396.9666)"><tspan x="0" y="0" class="st6 st7 st8">SUB-MENU </tspan><tspan x="0" y="15.6" class="st6 st7 st8">WITH LINKS</tspan></text>
<rect x="35.61" y="272.71" class="st4" width="164.95" height="283.93"/>
<rect x="223.53" y="272.71" class="st4" width="358.03" height="485.89"/>
<rect x="83.59" y="801.51" class="st5" width="56.16" height="18.72"/>
<text transform="matrix(1 0 0 1 83.5859 810.7398)" class="st6 st7 st8">TEXT</text>
<rect x="375.92" y="804.51" class="st5" width="124.2" height="13.46"/>
<text transform="matrix(1 0 0 1 375.9197 813.0304)" class="st6 st7 st9">SOCIAL ICONS LINKS</text>
<rect x="505.96" y="38.73" class="st4" width="70.56" height="27.36"/>
<rect x="438.76" y="47.37" class="st5" width="56.16" height="18.72"/>
<text transform="matrix(1 0 0 1 438.7601 56.5998)" class="st6 st7 st8">DOCS</text>
<rect x="423.64" y="38.73" class="st4" width="70.56" height="27.36"/>
<rect x="351.62" y="47.37" class="st5" width="56.16" height="18.72"/>
<text transform="matrix(1 0 0 1 351.6182 56.5998)" class="st6 st7 st8">FEATURES</text>
<rect x="343.5" y="38.73" class="st4" width="70.56" height="27.36"/>
<rect x="277.82" y="47.37" class="st5" width="56.16" height="18.72"/>
<text transform="matrix(1 0 0 1 277.8243 56.5998)" class="st6 st7 st8">HOME</text>
<rect x="262.7" y="38.73" class="st4" width="70.56" height="27.36"/>
<rect x="248.08" y="337.4" class="st5" width="302.4" height="44.28"/>
<text transform="matrix(1 0 0 1 248.0801 345.21)"><tspan x="0" y="0" class="st6 st7 st10">Lorem ipsum dolor sit amet, consectetuer adipiscing elit, sed </tspan><tspan x="0" y="13.2" class="st6 st7 st10">diam nonummy nibh euismod tincidunt ut laoreet dolore magna </tspan><tspan x="0" y="26.4" class="st6 st7 st10">aliquam erat volutpat. Ut wisi enim ad minim veniam, quis </tspan></text>
<rect x="253.44" y="558.78" class="st5" width="56.16" height="18.72"/>
<text transform="matrix(1 0 0 1 253.4396 568.0048)" class="st6 st7 st8">TEXT</text>
<rect x="272.14" y="526.99" class="st5" width="56.16" height="18.72"/>
<text transform="matrix(1 0 0 1 272.1373 536.2194)" class="st6 st7 st8">BUTTON</text>
<rect x="389.14" y="642.59" class="st5" width="56.16" height="18.72"/>
<text transform="matrix(1 0 0 1 389.145 651.8248)" class="st6 st7 st8">CODE</text>
<rect x="389.14" y="677.49" class="st5" width="56.16" height="18.72"/>
<text transform="matrix(1 0 0 1 389.145 686.7247)" class="st6 st7 st8">CODE</text>
<rect x="389.14" y="712.68" class="st5" width="56.16" height="18.72"/>
<text transform="matrix(1 0 0 1 389.145 721.9149)" class="st6 st7 st8">CODE</text>
<rect x="251.34" y="582.14" class="st5" width="302.4" height="44.28"/>
<text transform="matrix(1 0 0 1 251.3434 589.9449)"><tspan x="0" y="0" class="st6 st7 st10">Lorem ipsum dolor sit amet, consectetuer adipiscing elit, sed </tspan><tspan x="0" y="13.2" class="st6 st7 st10">diam nonummy nibh euismod tincidunt ut laoreet dolore magna </tspan><tspan x="0" y="26.4" class="st6 st7 st10">aliquam erat volutpat. Ut wisi enim ad minim veniam, quis </tspan></text>
<rect x="253.44" y="436.56" class="st5" width="56.16" height="18.72"/>
<text transform="matrix(1 0 0 1 253.4396 445.7897)" class="st6 st7 st8">TEXT</text>
<rect x="251.34" y="459.92" class="st5" width="302.4" height="44.28"/>
<text transform="matrix(1 0 0 1 251.3434 467.7299)"><tspan x="0" y="0" class="st6 st7 st10">Lorem ipsum dolor sit amet, consectetuer adipiscing elit, sed </tspan><tspan x="0" y="13.2" class="st6 st7 st10">diam nonummy nibh euismod tincidunt ut laoreet dolore magna </tspan><tspan x="0" y="26.4" class="st6 st7 st10">aliquam erat volutpat. Ut wisi enim ad minim veniam, quis </tspan></text>
<rect x="248.46" y="393.56" class="st4" width="302.02" height="31.32"/>
<rect x="251.54" y="634.12" class="st4" width="302.02" height="25.12"/>
<rect x="251.54" y="670.78" class="st4" width="302.02" height="23.47"/>
<rect x="253.44" y="706.42" class="st4" width="302.02" height="23.98"/>
<rect x="253.44" y="515.65" class="st4" width="81.04" height="30.19"/>
</svg>
