<?xml version="1.0" encoding="utf-8"?>
<!-- Generator: Adobe Illustrator 26.0.3, SVG Export Plug-In . SVG Version: 6.00 Build 0)  -->
<svg version="1.1" id="Layer_1" xmlns="http://www.w3.org/2000/svg" xmlns:xlink="http://www.w3.org/1999/xlink" x="0px" y="0px"
	 viewBox="0 0 612 884.34" style="enable-background:new 0 0 612 884.34;" xml:space="preserve">
<style type="text/css">
	.st0{fill:#FFFFFF;}
	.st1{fill:none;stroke:#000000;stroke-width:2;stroke-miterlimit:10;}
	.st2{fill:none;stroke:#000000;stroke-miterlimit:10;}
	.st3{fill:none;stroke:#ED1C24;stroke-miterlimit:10;}
	.st4{fill:none;stroke:#2E3192;stroke-miterlimit:10;}
	.st5{fill:none;}
	.st6{fill:#2E3192;}
	.st7{font-family:'MyriadPro-Regular';}
	.st8{font-size:13px;}
	.st9{font-size:12px;}
</style>
<rect class="st0" width="612" height="884.34"/>
<rect x="46.8" y="27.22" class="st4" width="116.64" height="38.88"/>
<rect x="57.6" y="122.26" class="st4" width="270" height="99.36"/>
<rect x="415.84" y="118.26" class="st4" width="125.92" height="116.06"/>
<rect x="67.86" y="315.12" class="st4" width="243" height="58.32"/>
<rect x="68.04" y="433.52" class="st4" width="450.6" height="69.12"/>
<rect x="64.67" y="539.09" class="st4" width="295.33" height="66.55"/>
<rect x="373.02" y="539.42" class="st4" width="147.66" height="66.55"/>
<line class="st4" x1="33.84" y1="779.1" x2="578.16" y2="779.1"/>
<rect x="58.68" y="789.62" class="st4" width="72.36" height="21.6"/>
<rect x="217.44" y="789.62" class="st4" width="61.08" height="27"/>
<rect x="369.72" y="789.62" class="st4" width="145.32" height="27"/>
<rect x="65.52" y="163.3" class="st5" width="247.68" height="37.44"/>
<text transform="matrix(1 0 0 1 65.5201 172.5299)"><tspan x="0" y="0" class="st6 st7 st8">Lorem ipsum dolor sit amet, consectetuer </tspan><tspan x="0" y="15.6" class="st6 st7 st8">adipiscing elit, sed diam nonummy nibh </tspan></text>
<rect x="69.94" y="344.28" class="st5" width="247.68" height="37.44"/>
<text transform="matrix(1 0 0 1 69.9432 352.7993)"><tspan x="0" y="0" class="st6 st7 st9">Lorem ipsum dolor sit amet, consectetuer adipi</tspan><tspan x="235.22" y="0" class="st6 st7 st9">-</tspan><tspan x="0" y="14.4" class="st6 st7 st9">scing elit, sed diam nonummy nibh </tspan></text>
<rect x="95.64" y="39.63" class="st5" width="56.16" height="18.72"/>
<text transform="matrix(1 0 0 1 95.6402 48.8577)" class="st6 st7 st8">LOGO</text>
<rect x="517.68" y="41.62" class="st5" width="56.16" height="18.72"/>
<text transform="matrix(1 0 0 1 517.6802 50.8498)" class="st6 st7 st8">TEAM</text>
<rect x="224.74" y="797.76" class="st5" width="51.18" height="10.88"/>
<text transform="matrix(1 0 0 1 224.7374 806.2798)" class="st6 st7 st9">NAVBAR</text>
<rect x="75.48" y="140.48" class="st5" width="97.32" height="14.26"/>
<text transform="matrix(1 0 0 1 75.4804 149.7084)" class="st6 st7 st8">SUBHEADER</text>
<rect x="460.92" y="166.93" class="st5" width="56.16" height="18.72"/>
<text transform="matrix(1 0 0 1 460.9203 176.1598)" class="st6 st7 st8">IMAGE</text>
<rect x="433.83" y="319.79" class="st5" width="56.16" height="18.72"/>
<text transform="matrix(1 0 0 1 433.8284 329.0198)" class="st6 st7 st8">IMAGE</text>
<rect x="269.15" y="461.15" class="st5" width="116.89" height="19.01"/>
<text transform="matrix(1 0 0 1 269.1542 470.3798)" class="st6 st7 st8">DIALOG BOX</text>
<rect x="180.93" y="563.19" class="st5" width="116.89" height="19.01"/>
<text transform="matrix(1 0 0 1 180.9274 572.4204)" class="st6 st7 st8">DIALOG BOX</text>
<rect x="420.36" y="571.97" class="st5" width="116.89" height="19.01"/>
<text transform="matrix(1 0 0 1 420.3563 581.2036)" class="st6 st7 st8">DIALOG BOX</text>
<rect x="95.44" y="688.07" class="st5" width="116.89" height="19.01"/>
<text transform="matrix(1 0 0 1 95.4442 697.3022)" class="st6 st7 st8">DIALOG BOX</text>
<rect x="259.18" y="688.07" class="st5" width="116.89" height="19.01"/>
<text transform="matrix(1 0 0 1 259.1772 697.3022)" class="st6 st7 st8">DIALOG BOX</text>
<rect x="420.36" y="688.07" class="st5" width="116.89" height="19.01"/>
<text transform="matrix(1 0 0 1 420.3563 697.3022)" class="st6 st7 st8">DIALOG BOX</text>
<rect x="387.12" y="262.79" class="st4" width="131.52" height="121.23"/>
<rect x="67.44" y="625.63" class="st4" width="131.52" height="121.23"/>
<rect x="227.1" y="628.38" class="st4" width="131.52" height="121.23"/>
<rect x="387.12" y="625.63" class="st4" width="131.52" height="121.23"/>
<rect x="77.04" y="326.64" class="st5" width="56.16" height="18.72"/>
<text transform="matrix(1 0 0 1 77.0402 335.8685)" class="st6 st7 st8">TEXT</text>
<rect x="80.19" y="795.76" class="st5" width="56.16" height="18.72"/>
<text transform="matrix(1 0 0 1 80.1859 804.9898)" class="st6 st7 st8">TEXT</text>
<rect x="387.12" y="797.76" class="st5" width="106.28" height="13.46"/>
<text transform="matrix(1 0 0 1 387.1197 806.2799)" class="st6 st7 st9">SOCIAL ICONS LINKS</text>
<rect x="502.56" y="32.98" class="st4" width="70.56" height="27.36"/>
<rect x="435.36" y="41.62" class="st5" width="56.16" height="18.72"/>
<text transform="matrix(1 0 0 1 435.3602 50.8498)" class="st6 st7 st8">DOCS</text>
<rect x="420.24" y="32.98" class="st4" width="70.56" height="27.36"/>
<rect x="348.22" y="41.62" class="st5" width="56.16" height="18.72"/>
<text transform="matrix(1 0 0 1 348.2181 50.8498)" class="st6 st7 st8">FEATURES</text>
<rect x="340.1" y="32.98" class="st4" width="70.56" height="27.36"/>
<rect x="274.42" y="41.62" class="st5" width="56.16" height="18.72"/>
<text transform="matrix(1 0 0 1 274.4244 50.8498)" class="st6 st7 st8">HOME</text>
<rect x="259.3" y="32.98" class="st4" width="70.56" height="27.36"/>
<rect x="15" y="11.56" class="st1" width="581.04" height="849.72"/>
</svg>
