<svg id="Layer_1" data-name="Layer 1" xmlns="http://www.w3.org/2000/svg" viewBox="0 0 612 1004.84"><defs><style>.cls-1{fill:#fff;}.cls-2,.cls-3{fill:none;stroke:#231f20;stroke-miterlimit:10;}.cls-2{stroke-width:2px;}.cls-4{font-size:13px;}.cls-14,.cls-4{fill:#231f20;font-family:MyriadPro-Regular, Myriad Pro;}.cls-5{letter-spacing:-0.01em;}.cls-6{letter-spacing:-0.01em;}.cls-7{letter-spacing:0em;}.cls-8{letter-spacing:-0.01em;}.cls-9{letter-spacing:0.01em;}.cls-10{letter-spacing:0em;}.cls-11{letter-spacing:-0.01em;}.cls-12{letter-spacing:0.01em;}.cls-13{letter-spacing:-0.05em;}.cls-14{font-size:12px;}.cls-15{letter-spacing:-0.05em;}.cls-16{letter-spacing:-0.02em;}.cls-17{letter-spacing:-0.08em;}.cls-18{letter-spacing:-0.01em;}.cls-19{letter-spacing:0.03em;}.cls-20{letter-spacing:0.04em;}.cls-21{letter-spacing:-0.03em;}</style></defs><rect class="cls-1" width="612" height="1004.84"/><rect class="cls-2" x="37.88" y="15.56" width="544.32" height="969.84"/><rect class="cls-3" x="50.84" y="26.36" width="116.64" height="38.88"/><rect class="cls-3" x="428.84" y="26.36" width="136.08" height="38.88"/><rect class="cls-3" x="61.64" y="121.4" width="270" height="99.36"/><rect class="cls-3" x="72.44" y="238.32" width="95.04" height="43.2"/><rect class="cls-3" x="364.04" y="121.4" width="185.76" height="220.32"/><rect class="cls-3" x="196.64" y="391.4" width="243" height="58.32"/><rect class="cls-3" x="72.44" y="479.96" width="449.28" height="101.52"/><rect class="cls-3" x="72.44" y="611.72" width="209.52" height="69.12"/><rect class="cls-3" x="387.8" y="611.72" width="133.92" height="69.12"/><rect class="cls-3" x="72.44" y="706.76" width="449.28" height="120.96"/><rect class="cls-3" x="98.36" y="721.88" width="159.84" height="45.36"/><rect class="cls-3" x="135.08" y="778.04" width="86.4" height="28.08"/><rect class="cls-3" x="364.04" y="721.88" width="132.84" height="92.88"/><rect class="cls-3" x="72.44" y="855.64" width="449.28" height="75.6"/><line class="cls-3" x1="37.88" y1="939.24" x2="582.2" y2="939.24"/><rect class="cls-3" x="62.72" y="949.76" width="72.36" height="21.6"/><rect class="cls-3" x="221.48" y="949.76" width="45.36" height="27"/><rect class="cls-3" x="373.76" y="949.76" width="108" height="27"/><rect class="cls-3" x="249.16" y="862.28" width="113.68" height="15.12"/><rect class="cls-3" x="456.92" y="884.88" width="39.96" height="39.96"/><rect class="cls-3" x="387.8" y="884.88" width="39.96" height="39.96"/><rect class="cls-3" x="316.52" y="884.88" width="39.96" height="39.96"/><rect class="cls-3" x="247.4" y="884.88" width="39.96" height="39.96"/><rect class="cls-3" x="178.28" y="884.88" width="39.96" height="39.96"/><rect class="cls-3" x="109.16" y="884.88" width="39.96" height="39.96"/><text class="cls-4" transform="translate(69.56 171.67)"><tspan class="cls-5">L</tspan><tspan x="5.95" y="0">o</tspan><tspan class="cls-6" x="13.09" y="0">r</tspan><tspan x="17.21" y="0">em ipsum dolor sit ame</tspan><tspan class="cls-7" x="144.22" y="0">t</tspan><tspan x="148.48" y="0">, </tspan><tspan class="cls-8" x="153.93" y="0">c</tspan><tspan x="159.68" y="0">onse</tspan><tspan class="cls-9" x="185.69" y="0">c</tspan><tspan class="cls-8" x="191.68" y="0">t</tspan><tspan x="195.9" y="0">etuer </tspan><tspan x="0" y="15.6">adipiscing eli</tspan><tspan class="cls-10" x="70.95" y="15.6">t</tspan><tspan x="75.22" y="15.6">, sed diam nonum</tspan><tspan class="cls-11" x="172.22" y="15.6">m</tspan><tspan x="182.9" y="15.6">y nibh </tspan></text><text class="cls-4" transform="translate(99.68 46.07)">TE<tspan class="cls-12" x="12.86" y="0">X</tspan><tspan x="20.38" y="0">T</tspan></text><text class="cls-4" transform="translate(476.9 46.07)">N<tspan class="cls-13" x="8.55" y="0">A</tspan><tspan x="15.82" y="0">VBAR</tspan></text><text class="cls-14" transform="translate(222.74 966.42)">N<tspan class="cls-15" x="7.9" y="0">A</tspan><tspan x="14.6" y="0">VBAR</tspan></text><text class="cls-4" transform="translate(433.72 228.19)"><tspan class="cls-16">C</tspan><tspan x="7.27" y="0">ON</tspan><tspan class="cls-17" x="24.78" y="0">T</tspan><tspan class="cls-18" x="30.26" y="0">A</tspan><tspan class="cls-19" x="38.02" y="0">C</tspan><tspan x="45.93" y="0">T </tspan><tspan x="9.83" y="15.6">FORM</tspan></text><text class="cls-4" transform="translate(70.28 146.71)">TE<tspan class="cls-12" x="12.86" y="0">X</tspan><tspan x="20.38" y="0">T</tspan></text><text class="cls-4" transform="translate(96.06 264.15)">BU<tspan class="cls-20" x="15.46" y="0">T</tspan><tspan class="cls-21" x="22.41" y="0">T</tspan><tspan x="28.52" y="0">ON</tspan></text><text class="cls-4" transform="translate(154.52 794.95)">BU<tspan class="cls-20" x="15.46" y="0">T</tspan><tspan class="cls-21" x="22.41" y="0">T</tspan><tspan x="28.52" y="0">ON</tspan></text><text class="cls-4" transform="translate(305.76 421.51)">TE<tspan class="cls-12" x="12.86" y="0">X</tspan><tspan x="20.38" y="0">T</tspan></text><text class="cls-4" transform="translate(84.23 965.13)">TE<tspan class="cls-12" x="12.86" y="0">X</tspan><tspan x="20.38" y="0">T</tspan></text><text class="cls-4" transform="translate(290.06 874.79)">TE<tspan class="cls-12" x="12.86" y="0">X</tspan><tspan x="20.38" y="0">T</tspan></text><text class="cls-4" transform="translate(150.2 744.43)">SUB HEADER</text><text class="cls-4" transform="translate(431.84 633.32)">TE<tspan class="cls-12" x="12.86" y="0">X</tspan><tspan x="20.38" y="0">T</tspan></text><text class="cls-4" transform="translate(431.84 658.63)">TE<tspan class="cls-12" x="12.86" y="0">X</tspan><tspan x="20.38" y="0">T</tspan></text><text class="cls-4" transform="translate(95.14 525.11)">I<tspan class="cls-6" x="3.11" y="0">M</tspan><tspan class="cls-18" x="13.43" y="0">A</tspan><tspan x="21.19" y="0">GE</tspan></text><text class="cls-4" transform="translate(275.92 523.98)">I<tspan class="cls-6" x="3.11" y="0">M</tspan><tspan class="cls-18" x="13.43" y="0">A</tspan><tspan x="21.19" y="0">GE</tspan></text><text class="cls-4" transform="translate(441.6 526.59)">I<tspan class="cls-6" x="3.11" y="0">M</tspan><tspan class="cls-18" x="13.43" y="0">A</tspan><tspan x="21.19" y="0">GE</tspan></text><text class="cls-4" transform="translate(412.14 770.67)">I<tspan class="cls-6" x="3.11" y="0">M</tspan><tspan class="cls-18" x="13.43" y="0">A</tspan><tspan x="21.19" y="0">GE</tspan></text><text class="cls-14" transform="translate(376.56 967.42)">SOCIAL I<tspan class="cls-16" x="42.43" y="0">C</tspan><tspan x="49.14" y="0">ONS LINKS</tspan></text><text class="cls-4" transform="translate(165.32 651.55)">I<tspan class="cls-6" x="3.11" y="0">M</tspan><tspan class="cls-18" x="13.43" y="0">A</tspan><tspan x="21.19" y="0">GE</tspan></text><text class="cls-4" transform="translate(112.31 908.62)">I<tspan class="cls-6" x="3.11" y="0">M</tspan><tspan class="cls-18" x="13.43" y="0">A</tspan><tspan x="21.19" y="0">GE</tspan></text><text class="cls-4" transform="translate(180.6 908.62)">I<tspan class="cls-6" x="3.11" y="0">M</tspan><tspan class="cls-18" x="13.43" y="0">A</tspan><tspan x="21.19" y="0">GE</tspan></text><text class="cls-4" transform="translate(249.83 908.19)">I<tspan class="cls-6" x="3.11" y="0">M</tspan><tspan class="cls-18" x="13.43" y="0">A</tspan><tspan x="21.19" y="0">GE</tspan></text><text class="cls-4" transform="translate(390.23 908.19)">I<tspan class="cls-6" x="3.11" y="0">M</tspan><tspan class="cls-18" x="13.43" y="0">A</tspan><tspan x="21.19" y="0">GE</tspan></text><text class="cls-4" transform="translate(460.05 908.19)">I<tspan class="cls-6" x="3.11" y="0">M</tspan><tspan class="cls-18" x="13.43" y="0">A</tspan><tspan x="21.19" y="0">GE</tspan></text><text class="cls-4" transform="translate(318.76 908.73)">I<tspan class="cls-6" x="3.11" y="0">M</tspan><tspan class="cls-18" x="13.43" y="0">A</tspan><tspan x="21.19" y="0">GE</tspan></text><text class="cls-4" transform="translate(98.36 561.19)">TE<tspan class="cls-12" x="12.86" y="0">X</tspan><tspan x="20.38" y="0">T</tspan></text><text class="cls-4" transform="translate(277.92 561.06)">TE<tspan class="cls-12" x="12.86" y="0">X</tspan><tspan x="20.38" y="0">T</tspan></text><text class="cls-4" transform="translate(448.82 560.93)">TE<tspan class="cls-12" x="12.86" y="0">X</tspan><tspan x="20.38" y="0">T</tspan></text><rect class="cls-3" x="93.54" y="500.48" width="41.54" height="41.54"/><rect class="cls-3" x="273.24" y="500.48" width="41.54" height="41.54"/><rect class="cls-3" x="439.15" y="503.47" width="41.54" height="41.54"/><text class="cls-4" transform="translate(117.92 756.99)"><tspan class="cls-5">L</tspan><tspan x="5.95" y="0">o</tspan><tspan class="cls-6" x="13.09" y="0">r</tspan><tspan x="17.21" y="0">em ipsum dolor sit </tspan></text></svg>