<?xml version="1.0" encoding="utf-8"?>
<!-- Generator: Adobe Illustrator 26.0.3, SVG Export Plug-In . SVG Version: 6.00 Build 0)  -->
<svg version="1.1" id="Layer_1" xmlns="http://www.w3.org/2000/svg" xmlns:xlink="http://www.w3.org/1999/xlink" x="0px" y="0px"
	 viewBox="0 0 612 1056.24" style="enable-background:new 0 0 612 1056.24;" xml:space="preserve">
<style type="text/css">
	.st0{fill:#FFFFFF;}
	.st1{fill:none;stroke:#000000;stroke-width:2;stroke-miterlimit:10;}
	.st2{fill:none;stroke:#000000;stroke-miterlimit:10;}
	.st3{fill:none;}
	.st4{font-family:'MyriadPro-Regular';}
	.st5{font-size:13px;}
	.st6{fill:#ED1C24;}
	.st7{font-size:12px;}
	.st8{fill:none;stroke:#ED1C24;stroke-miterlimit:10;}
	.st9{font-size:11px;}
	.st10{fill:#2E3192;}
	.st11{fill:none;stroke:#2E3192;stroke-miterlimit:10;}
</style>
<rect y="51.4" class="st0" width="612" height="1004.84"/>
<rect x="37.88" y="66.96" class="st1" width="544.32" height="969.84"/>
<rect x="50.84" y="77.76" class="st2" width="116.64" height="38.88"/>
<rect x="61.64" y="172.8" class="st2" width="270" height="99.36"/>
<rect x="72.44" y="289.72" class="st2" width="95.04" height="43.2"/>
<rect x="364.04" y="172.8" class="st2" width="185.76" height="220.32"/>
<rect x="196.64" y="442.8" class="st2" width="243" height="58.32"/>
<rect x="72.44" y="531.36" class="st2" width="449.28" height="101.52"/>
<rect x="72.44" y="663.12" class="st2" width="209.52" height="69.12"/>
<rect x="387.8" y="663.12" class="st2" width="133.92" height="69.12"/>
<rect x="72.44" y="758.16" class="st2" width="449.28" height="120.96"/>
<rect x="98.36" y="773.28" class="st2" width="159.84" height="45.36"/>
<rect x="135.08" y="829.44" class="st2" width="86.4" height="28.08"/>
<rect x="364.04" y="773.28" class="st2" width="132.84" height="92.88"/>
<rect x="72.44" y="907.04" class="st2" width="449.28" height="75.6"/>
<line class="st2" x1="37.88" y1="990.64" x2="582.2" y2="990.64"/>
<rect x="62.72" y="1001.16" class="st2" width="72.36" height="21.6"/>
<rect x="221.48" y="1001.16" class="st2" width="45.36" height="27"/>
<rect x="373.76" y="1001.16" class="st2" width="108" height="27"/>
<rect x="249.16" y="913.68" class="st2" width="113.68" height="15.12"/>
<rect x="456.92" y="936.28" class="st2" width="39.96" height="39.96"/>
<rect x="387.8" y="936.28" class="st2" width="39.96" height="39.96"/>
<rect x="316.52" y="936.28" class="st2" width="39.96" height="39.96"/>
<rect x="247.4" y="936.28" class="st2" width="39.96" height="39.96"/>
<rect x="178.28" y="936.28" class="st2" width="39.96" height="39.96"/>
<rect x="109.16" y="936.28" class="st2" width="39.96" height="39.96"/>
<rect x="69.56" y="213.84" class="st3" width="247.68" height="37.44"/>
<text transform="matrix(1 0 0 1 69.5601 223.0699)"><tspan x="0" y="0" class="st4 st5">Lorem ipsum dolor sit amet, consectetuer </tspan><tspan x="0" y="15.6" class="st4 st5">adipiscing elit, sed diam nonummy nibh </tspan></text>
<rect x="98.36" y="92.17" class="st3" width="56.16" height="18.72"/>
<text transform="matrix(1 0 0 1 98.3602 101.4027)" class="st4 st5">LOGO</text>
<rect x="521.72" y="92.16" class="st3" width="56.16" height="18.72"/>
<text transform="matrix(1 0 0 1 521.7202 101.3898)" class="st6 st4 st5">TEAM</text>
<rect x="222.74" y="1009.3" class="st3" width="56.16" height="18.72"/>
<text transform="matrix(1 0 0 1 222.7361 1017.8199)" class="st4 st7">NAVBAR</text>
<rect x="431.84" y="270.36" class="st3" width="56.16" height="48.85"/>
<text transform="matrix(1 0 0 1 433.1854 279.5898)"><tspan x="0" y="0" class="st4 st5">CONTACT </tspan><tspan x="10.37" y="15.6" class="st4 st5">FORM</tspan></text>
<rect x="70.28" y="188.88" class="st3" width="56.16" height="18.72"/>
<text transform="matrix(1 0 0 1 70.2802 198.1131)" class="st4 st5">TEXT</text>
<rect x="96.06" y="306.32" class="st3" width="56.16" height="18.72"/>
<text transform="matrix(1 0 0 1 96.0602 315.5498)" class="st4 st5">BUTTON</text>
<rect x="154.52" y="837.12" class="st3" width="56.16" height="18.72"/>
<text transform="matrix(1 0 0 1 154.5202 846.3499)" class="st4 st5">BUTTON</text>
<rect x="305.76" y="463.68" class="st3" width="56.16" height="18.72"/>
<text transform="matrix(1 0 0 1 305.7642 472.9091)" class="st4 st5">TEXT</text>
<rect x="84.23" y="1007.3" class="st3" width="56.16" height="18.72"/>
<text transform="matrix(1 0 0 1 84.2259 1016.5298)" class="st4 st5">TEXT</text>
<rect x="290.06" y="916.96" class="st3" width="56.16" height="18.72"/>
<text transform="matrix(1 0 0 1 290.0602 926.1899)" class="st4 st5">TEXT</text>
<rect x="150.2" y="786.6" class="st3" width="77.76" height="9.36"/>
<text transform="matrix(1 0 0 1 150.2002 795.8304)" class="st4 st5">SUB HEADER</text>
<rect x="431.84" y="675.49" class="st3" width="56.16" height="12.49"/>
<text transform="matrix(1 0 0 1 431.8397 684.7159)" class="st4 st5">TEXT</text>
<rect x="431.84" y="700.8" class="st3" width="56.16" height="12.49"/>
<text transform="matrix(1 0 0 1 431.8397 710.0258)" class="st4 st5">TEXT</text>
<rect x="95.14" y="567.28" class="st3" width="56.16" height="18.72"/>
<text transform="matrix(1 0 0 1 95.1378 576.5098)" class="st4 st5">IMAGE</text>
<rect x="275.92" y="566.15" class="st3" width="56.16" height="18.72"/>
<text transform="matrix(1 0 0 1 275.9202 575.3792)" class="st4 st5">IMAGE</text>
<rect x="441.6" y="568.76" class="st3" width="56.16" height="18.72"/>
<text transform="matrix(1 0 0 1 441.5978 577.9899)" class="st4 st5">IMAGE</text>
<rect x="412.14" y="812.84" class="st3" width="56.16" height="18.72"/>
<text transform="matrix(1 0 0 1 412.1378 822.0699)" class="st4 st5">IMAGE</text>
<rect x="376.56" y="1010.3" class="st3" width="124.2" height="13.46"/>
<text transform="matrix(1 0 0 1 376.5597 1018.8204)" class="st4 st7">SOCIAL ICONS LINKS</text>
<rect x="165.32" y="693.72" class="st3" width="56.16" height="18.72"/>
<text transform="matrix(1 0 0 1 165.3202 702.9499)" class="st4 st5">IMAGE</text>
<rect x="112.31" y="950.79" class="st3" width="56.16" height="18.72"/>
<text transform="matrix(1 0 0 1 112.3059 960.0159)" class="st4 st5">IMAGE</text>
<rect x="180.6" y="950.79" class="st3" width="56.16" height="18.72"/>
<text transform="matrix(1 0 0 1 180.6002 960.0159)" class="st4 st5">IMAGE</text>
<rect x="249.83" y="950.36" class="st3" width="56.16" height="18.72"/>
<text transform="matrix(1 0 0 1 249.8282 959.5899)" class="st4 st5">IMAGE</text>
<rect x="390.23" y="950.36" class="st3" width="56.16" height="18.72"/>
<text transform="matrix(1 0 0 1 390.2281 959.5899)" class="st4 st5">IMAGE</text>
<rect x="460.05" y="950.36" class="st3" width="56.16" height="18.72"/>
<text transform="matrix(1 0 0 1 460.0475 959.5899)" class="st4 st5">IMAGE</text>
<rect x="318.76" y="950.9" class="st3" width="56.16" height="18.72"/>
<text transform="matrix(1 0 0 1 318.7602 960.1299)" class="st4 st5">IMAGE</text>
<rect x="98.36" y="603.36" class="st3" width="56.16" height="18.72"/>
<text transform="matrix(1 0 0 1 98.3602 612.5898)" class="st4 st5">TEXT</text>
<rect x="277.92" y="603.23" class="st3" width="56.16" height="18.72"/>
<text transform="matrix(1 0 0 1 277.9202 612.4593)" class="st4 st5">TEXT</text>
<rect x="448.82" y="603.1" class="st3" width="56.16" height="18.72"/>
<text transform="matrix(1 0 0 1 448.8202 612.3291)" class="st4 st5">TEXT</text>
<rect x="93.54" y="551.88" class="st2" width="41.54" height="41.54"/>
<rect x="273.24" y="551.88" class="st2" width="41.54" height="41.54"/>
<rect x="439.15" y="554.87" class="st2" width="41.54" height="41.54"/>
<rect x="107" y="799.16" class="st3" width="139.68" height="12.96"/>
<text transform="matrix(1 0 0 1 117.7627 808.3893)" class="st4 st5">Lorem ipsum dolor sit </text>
<rect x="506.6" y="83.52" class="st8" width="70.56" height="27.36"/>
<rect x="509.36" y="21.6" class="st3" width="75.84" height="10.17"/>
<text transform="matrix(1 0 0 1 509.3602 29.4104)" class="st6 st4 st9">COULD HAVE</text>
<rect x="506.24" y="12.96" class="st8" width="70.56" height="27.36"/>
<rect x="439.4" y="92.16" class="st3" width="56.16" height="18.72"/>
<text transform="matrix(1 0 0 1 439.4002 101.3898)" class="st10 st4 st5">DOCS</text>
<rect x="424.28" y="83.52" class="st11" width="70.56" height="27.36"/>
<rect x="352.26" y="92.16" class="st3" width="56.16" height="18.72"/>
<text transform="matrix(1 0 0 1 352.2581 101.3898)" class="st10 st4 st5">FEATURES</text>
<rect x="344.14" y="83.52" class="st11" width="70.56" height="27.36"/>
<rect x="271.38" y="21.6" class="st3" width="81.86" height="10.17"/>
<text transform="matrix(1 0 0 1 271.3843 29.4104)" class="st10 st4 st9">SHOULD HAVE</text>
<rect x="270.26" y="12.96" class="st11" width="70.56" height="27.36"/>
<rect x="278.46" y="92.16" class="st3" width="56.16" height="18.72"/>
<text transform="matrix(1 0 0 1 278.4644 101.3898)" class="st4 st5">HOME</text>
<rect x="263.34" y="83.52" class="st2" width="70.56" height="27.36"/>
<rect x="40.92" y="22.39" class="st3" width="70.39" height="9.37"/>
<text transform="matrix(1 0 0 1 40.9197 31.6233)" class="st4 st5">MUST HAVE</text>
<rect x="36.8" y="12.96" class="st2" width="70.56" height="27.36"/>
</svg>
