<?xml version="1.0" encoding="utf-8"?>
<!-- Generator: Adobe Illustrator 26.0.3, SVG Export Plug-In . SVG Version: 6.00 Build 0)  -->
<svg version="1.1" id="Layer_1" xmlns="http://www.w3.org/2000/svg" xmlns:xlink="http://www.w3.org/1999/xlink" x="0px" y="0px"
	 viewBox="0 0 612 884.34" style="enable-background:new 0 0 612 884.34;" xml:space="preserve">
<style type="text/css">
	.st0{fill:#FFFFFF;}
	.st1{fill:none;stroke:#000000;stroke-width:2;stroke-miterlimit:10;}
	.st2{fill:none;stroke:#000000;stroke-miterlimit:10;}
	.st3{fill:none;stroke:#ED1C24;stroke-miterlimit:10;}
	.st4{fill:none;stroke:#2E3192;stroke-miterlimit:10;}
	.st5{fill:none;}
	.st6{fill:#ED1C24;}
	.st7{font-family:'MyriadPro-Regular';}
	.st8{font-size:13px;}
	.st9{font-size:12px;}
</style>
<rect y="3.62" class="st0" width="612" height="884.34"/>
<rect x="15.48" y="12.17" class="st1" width="581.04" height="849.72"/>
<rect x="46.8" y="41.62" class="st3" width="116.64" height="38.88"/>
<rect x="29.4" y="136.66" class="st3" width="270" height="99.36"/>
<rect x="415.84" y="132.66" class="st3" width="125.92" height="116.06"/>
<rect x="58.68" y="294.4" class="st3" width="80.53" height="74.23"/>
<rect x="58.68" y="410.5" class="st3" width="80.53" height="74.23"/>
<rect x="58.68" y="526.61" class="st3" width="80.53" height="74.23"/>
<rect x="58.68" y="639.32" class="st3" width="80.53" height="74.23"/>
<line class="st3" x1="33.84" y1="793.5" x2="578.16" y2="793.5"/>
<rect x="58.68" y="804.02" class="st3" width="72.36" height="21.6"/>
<rect x="217.44" y="804.02" class="st3" width="50.84" height="27"/>
<rect x="369.72" y="804.02" class="st3" width="127" height="27"/>
<rect x="37.32" y="177.7" class="st5" width="247.68" height="37.44"/>
<text transform="matrix(1 0 0 1 37.3201 186.9299)"><tspan x="0" y="0" class="st6 st7 st8">Lorem ipsum dolor sit amet, consectetuer </tspan><tspan x="0" y="15.6" class="st6 st7 st8">adipiscing elit, sed diam nonummy nibh </tspan></text>
<rect x="88.44" y="55.89" class="st5" width="56.16" height="18.72"/>
<text transform="matrix(1 0 0 1 88.4402 65.1198)" class="st6 st7 st8">LOGO</text>
<rect x="517.68" y="56.02" class="st5" width="56.16" height="18.72"/>
<text transform="matrix(1 0 0 1 517.6802 65.2498)" class="st6 st7 st8">TEAM</text>
<rect x="222.3" y="812.16" class="st5" width="56.16" height="18.72"/>
<text transform="matrix(1 0 0 1 222.3 820.6799)" class="st6 st7 st9">NAVBAR</text>
<rect x="47.28" y="154.88" class="st5" width="97.32" height="14.26"/>
<text transform="matrix(1 0 0 1 47.2804 164.1084)" class="st6 st7 st8">SUBHEADER</text>
<rect x="460.92" y="181.33" class="st5" width="56.16" height="18.72"/>
<text transform="matrix(1 0 0 1 460.9204 190.5598)" class="st6 st7 st8">IMAGE</text>
<rect x="80.19" y="327.94" class="st5" width="56.16" height="18.72"/>
<text transform="matrix(1 0 0 1 80.1862 337.1698)" class="st6 st7 st8">IMAGE</text>
<rect x="80.19" y="438.26" class="st5" width="56.16" height="18.72"/>
<text transform="matrix(1 0 0 1 80.1862 447.4889)" class="st6 st7 st8">IMAGE</text>
<rect x="80.19" y="552.74" class="st5" width="56.16" height="18.72"/>
<text transform="matrix(1 0 0 1 80.1862 561.9689)" class="st6 st7 st8">IMAGE</text>
<rect x="80.19" y="668.46" class="st5" width="56.16" height="18.72"/>
<text transform="matrix(1 0 0 1 80.1862 677.6898)" class="st6 st7 st8">IMAGE</text>
<rect x="358.3" y="321" class="st5" width="69.51" height="32.6"/>
<text transform="matrix(1 0 0 1 376.3821 330.2298)"><tspan x="0" y="0" class="st6 st7 st8">NAME</tspan><tspan x="3.31" y="15.6" class="st6 st7 st8">TEXT</tspan></text>
<rect x="358.3" y="431.32" class="st5" width="69.51" height="32.6"/>
<text transform="matrix(1 0 0 1 376.3821 440.5489)"><tspan x="0" y="0" class="st6 st7 st8">NAME</tspan><tspan x="3.31" y="15.6" class="st6 st7 st8">TEXT</tspan></text>
<rect x="358.3" y="545.8" class="st5" width="69.51" height="32.6"/>
<text transform="matrix(1 0 0 1 376.3821 555.0289)"><tspan x="0" y="0" class="st6 st7 st8">NAME</tspan><tspan x="3.31" y="15.6" class="st6 st7 st8">TEXT</tspan></text>
<rect x="358.3" y="660.28" class="st5" width="69.51" height="32.6"/>
<text transform="matrix(1 0 0 1 376.3821 669.5089)"><tspan x="0" y="0" class="st6 st7 st8">NAME</tspan><tspan x="3.31" y="15.6" class="st6 st7 st8">TEXT</tspan></text>
<rect x="32.21" y="281.36" class="st3" width="509.55" height="100.32"/>
<rect x="32.21" y="398.93" class="st3" width="509.55" height="97.38"/>
<rect x="32.21" y="513.56" class="st3" width="509.55" height="97.08"/>
<rect x="32.21" y="627.89" class="st3" width="509.55" height="97.08"/>
<rect x="80.19" y="810.16" class="st5" width="56.16" height="18.72"/>
<text transform="matrix(1 0 0 1 80.1859 819.3898)" class="st6 st7 st8">TEXT</text>
<rect x="379.28" y="812.66" class="st5" width="113.2" height="13.46"/>
<text transform="matrix(1 0 0 1 379.2805 821.1796)" class="st6 st7 st9">SOCIAL ICONS LINKS</text>
<rect x="502.56" y="47.38" class="st3" width="70.56" height="27.36"/>
<rect x="435.36" y="56.02" class="st5" width="56.16" height="18.72"/>
<text transform="matrix(1 0 0 1 435.3601 65.2498)" class="st6 st7 st8">DOCS</text>
<rect x="420.24" y="47.38" class="st3" width="70.56" height="27.36"/>
<rect x="348.22" y="56.02" class="st5" width="56.16" height="18.72"/>
<text transform="matrix(1 0 0 1 348.2183 65.2498)" class="st6 st7 st8">FEATURES</text>
<rect x="340.1" y="47.38" class="st3" width="70.56" height="27.36"/>
<rect x="274.42" y="56.02" class="st5" width="56.16" height="18.72"/>
<text transform="matrix(1 0 0 1 274.4243 65.2498)" class="st6 st7 st8">HOME</text>
<rect x="259.3" y="47.38" class="st3" width="70.56" height="27.36"/>
</svg>
