<svg id="Layer_1" data-name="Layer 1" xmlns="http://www.w3.org/2000/svg" viewBox="0 0 479.1 478.74"><defs><style>.cls-1{fill:#fff;}</style></defs><path class="cls-1" d="M66.45,606.37c2.37-9.88,6-19.32,14.64-25.23,6.29-4.27,13.53-7.15,19.87-10.4-2.62-5.68-6.55-12.23-8.73-19.31-7.25-23.62,8.23-51,32.17-57.34,4.56-1.2,6.08-2.92,6-7.78-.35-18.39-.07-36.8-.19-55.2a14.54,14.54,0,0,1,4.63-11.22c10-9.79,19.88-19.76,29.64-29.5a4.77,4.77,0,0,0-.17-1.27c-6.64-12.28-6.61-13.37,4.41-22.19,7.12-5.69,9.4-11.31,5.6-19.75-1.17-2.6-2.21-4-4.95-4.59-5-1-10-2.36-15-3.47-4.79-1.06-7.3-4.06-7.36-8.88q-.15-14.25,0-28.49c.06-4.83,2.65-7.77,7.42-8.83,5.16-1.16,10.37-2.2,15.41-3.79a8.17,8.17,0,0,0,4.15-4c4.09-8.16,2.07-14.12-5.31-20.09-11.2-9.07-10.83-9.74-4-22.54,3.28-6.17,7-12.1,10.79-18,2.9-4.6,5.88-5.64,11.15-4.15,4.95,1.4,9.91,2.77,14.73,4.52,2.49.9,3.8,0,5.72-1.4,7.26-5.4,9-11.28,5.5-20.23-5.17-13.41-4.51-13.82,7.76-21.5,6.06-3.79,12.44-7.07,18.75-10.45,4.06-2.18,7.82-1.53,11,1.87,3.63,3.87,7.33,7.68,10.83,11.65,1.62,1.84,3.09,2,5.6,1.76,9-1,13.31-5.24,14.84-14.68,2.34-14.44,3.12-14.53,17.72-15.15,7.45-.32,14.95.2,22.41.54,4.39.19,6.62,3.11,7.59,7.08,1.27,5.14,2.63,10.27,3.54,15.47.49,2.81,2.14,3.52,4.42,4.53,8.2,3.64,13.91,1.8,19.74-5.42,9.2-11.37,9.83-11,22.92-4.08,6.18,3.28,12.06,7.11,18,10.77,4.11,2.52,5.52,6.09,4,10.79-1.61,5-3.31,10.07-4.51,15.22a6.67,6.67,0,0,0,1.33,5.21c8.3,9.18,8.37,9.11,20.26,5.46,13.56-4.17,13.69-4.25,21.29,7.89,3.88,6.19,7.25,12.7,10.71,19.14,2.1,3.91,1.44,7.54-1.8,10.61-3.84,3.65-7.65,7.35-11.62,10.85-2,1.74-2.22,3.37-1.94,6,1,9.27,5.78,13.11,14.95,14.62,14.16,2.32,14.19,3,14.72,17.53.26,7.15,0,14.32-.22,21.48-.13,4.58-2.49,7.54-7.11,8.58-5.16,1.16-10.29,2.47-15.46,3.59-2.5.54-3.58,1.83-4.67,4.3-3.74,8.51-1.63,14.31,5.69,20.14,13.34,10.62,9.34,11.25,3.91,23,9.59,9.61,19.14,19.43,29,28.94a16.73,16.73,0,0,1,5.5,13.22c-.21,18.71-.05,37.42-.11,56.13,0,2.55.23,4.2,3.36,5a47.55,47.55,0,0,1,25.76,76.11,25.33,25.33,0,0,0-1.41,2.21c3,.73,5.74,1.19,8.35,2.09,16.86,5.78,27.15,19.79,27.71,37.69.13,4.2-.19,8.43.09,12.62.33,5-1.25,8.81-5.67,11.32H407c-4.26-2.71-5.58-6.71-5.33-11.55.18-3.42,0-6.86,0-10.29.19-16.23,6.67-29,21.17-36.87,4.51-2.45,9.72-3.63,14.79-5.46-.44-.64-.86-1.28-1.31-1.9-21.4-29.08-8.85-66,25.94-76,3-.85,3.45-2.31,3.44-4.95-.09-16.52-.25-33,.07-49.56.1-5.39-1.26-9.32-5.32-13-7.42-6.79-14.31-14.17-21.45-21.33-7.54,9.14-7.54,9.14-18.82,5.69a7.22,7.22,0,0,1-1.35-.35c-8.48-4.78-15.24-2.66-20.26,5.32a8.44,8.44,0,0,0-1.24,5.65c1.11,5,2.74,9.89,4.34,14.77,1.53,4.7.24,8.35-3.91,10.82-8.15,4.85-16.39,9.54-24.61,14.28-4.47,2.57-8.29,1.65-11.68-2.09-3.57-3.92-7.11-7.88-10.94-11.53a6.23,6.23,0,0,0-4.75-1.42c-12.09,2.42-12.07,2.5-15,14.7-.11.45-.27.89-.37,1.35-2.88,12.46-2.88,12.46-15.29,13.79-.26,0-.5.31-1.18.73,0,3.76.22,7.8-.06,11.8-.25,3.48,1.08,4.75,4.43,5.64,24.35,6.55,39.54,30.27,34.32,54.87-1.72,8.13-6.25,15.66-9.53,23.53a11.52,11.52,0,0,0,1.87.56c15.92,3.27,26.79,12.59,30.93,28.24,1.95,7.37,1.36,15.41,2,23.14.39,4.91-1.2,8.81-5.51,11.43H239.53c-4.33-2.61-5.78-6.54-5.53-11.44.2-3.73,0-7.48.06-11.22.42-15.84,6.94-28.3,21.06-36,4.55-2.47,9.81-3.65,15-5.51-5.59-6.73-9.66-14.37-11.13-23.16-4.2-25.17,10.23-47.58,35-54.7,1.42-.41,3.63-1.62,3.7-2.58.37-5,.17-10.13.17-15.09-13.47-1.74-13.47-1.74-16.48-14.5-.07-.3-.2-.59-.27-.89-2.88-11.92-2.88-11.92-14.54-14.69-.15,0-.32-.13-.45-.09-1.63.48-3.69.52-4.78,1.56-3.83,3.65-7.37,7.61-10.94,11.52-3.41,3.72-7.23,4.57-11.71,2.05-6.23-3.5-12.64-6.72-18.7-10.5-12-7.47-11.89-7.6-7.72-21.3,3.58-11.79,3.64-11.87-5.6-20.3a6.54,6.54,0,0,0-5.17-1.23c-5.44,1.29-10.76,3.08-16.12,4.71-3.78,1.14-6.72-.16-9.06-3.11-1-1.31-1.93-2.73-3.29-4.67-7.9,7.94-15.48,15.72-23.27,23.29a10.7,10.7,0,0,0-3.64,8.53c.19,17,.26,34,0,50.95-.08,4.31,1.38,5.8,5.34,6.86,28.53,7.66,43,40.49,29.58,66.79-1.93,3.77-4.41,7.26-6.75,11.07,1.18.33,2.06.65,3,.81,13,2.4,22.36,9.57,28.54,21.15,5,9.37,4.29,19.56,4.49,29.66.09,4.95-.89,9.2-5.35,12H66.45ZM425.82,236.88c-6,1.84-11.62,3.56-17.25,5.27-3.85,1.17-7.28.83-10.29-2.28-5.3-5.48-10.75-10.82-16.17-16.19-2.66-2.65-3.75-5.64-2.47-9.33.67-1.91,1.16-3.87,1.75-5.81,4-13.13,4-13-8.16-19.37-2.42-1.26-3.81-1-5.53,1-3.05,3.54-6.5,6.73-9.55,10.27-3.27,3.8-7,4.62-11.71,3.12A160,160,0,0,0,328,198.65c-5.52-1.05-8.64-3.81-9.54-9.27-.25-1.54-.7-3-1.06-4.55-3.15-13.41-3.14-13.35-16.9-12.45-2.5.17-3.5,1.08-4,3.48-1,5-2.42,10-3.47,15-.88,4.18-3.46,6.38-7.45,7.4-6.93,1.77-13.84,3.58-20.72,5.52-4.14,1.16-7.68.6-10.59-2.76-1.22-1.41-2.54-2.74-3.82-4.11-9.39-10-9.33-9.9-20.82-2.49-2.34,1.51-2.66,2.91-1.81,5.35,1.49,4.25,2.53,8.67,4,12.91,1.75,4.88.63,8.62-3.21,12.1a191,191,0,0,0-13.87,13.87c-3.48,3.87-7.23,4.93-12.1,3.3-5.42-1.8-10.93-3.33-16.68-5.06-2.94,5.08-5.71,9.88-8.56,14.82,4.39,4.13,8.34,8.11,12.58,11.74s5.22,7.65,3.26,12.9c-1.74,4.64-3.5,9.47-4,14.34-.89,8.55-5.13,13-13.58,13.58a9.58,9.58,0,0,0-1.35.35c-12.78,3.1-12.68,3.09-12,16.34.15,2.85,1.08,4.13,3.83,4.66,4.73.91,9.4,2.14,14.12,3.16,4.44,1,6.9,3.52,7.92,8.06,1.49,6.67,3.26,13.3,5.35,19.8,1.55,4.84.39,8.41-3.29,11.67-4.3,3.81-8.4,7.84-12.84,12,2.43,4.2,4.83,8.17,7,12.26,1.22,2.27,2.64,2.44,4.95,1.63,4.69-1.65,9.53-2.88,14.27-4.39,4-1.28,7.24-.39,10.16,2.64q7.62,7.89,15.52,15.53c3,2.88,4.13,6,2.76,10.1-1.64,4.87-3.21,9.77-4.37,14.76a5.21,5.21,0,0,0,1.65,4.41c3.82,2.63,8,4.79,12.18,7.23,4.47-4.74,8.75-9.24,13-13.78,2.72-2.93,5.86-3.69,9.73-2.56,6.87,2,13.77,3.89,20.73,5.53,4.44,1,7.11,3.35,8.06,7.91,1.24,5.91,2.79,11.76,4.27,17.91,4.78,0,9.29-.13,13.78.06,2.75.11,3.77-1,4.26-3.6.9-4.89,2.34-9.68,3.35-14.56.91-4.35,3.48-6.62,7.75-7.63,6.81-1.61,13.6-3.35,20.28-5.41,4.41-1.37,7.84-.61,10.93,2.8,4,4.47,8.26,8.79,12.54,13.32,4.21-2.44,8.07-4.78,12-6.92,2.18-1.18,2.67-2.59,1.88-4.94-1.63-4.86-2.92-9.84-4.53-14.71-1.29-3.91-.18-7,2.63-9.73,5.32-5.24,10.64-10.49,15.85-15.85a8.93,8.93,0,0,1,9.76-2.6c5.05,1.55,10.08,3.21,15.2,4.52a4.24,4.24,0,0,0,3.72-1.14c2.72-4.1,5.07-8.44,7.6-12.77-4.69-4.42-8.93-8.55-13.32-12.5-3.42-3.08-4.24-6.51-2.88-10.92,2-6.53,3.9-13.13,5.34-19.8,1-4.74,3.51-7.46,8.16-8.39,1.83-.37,3.65-.8,5.47-1.21,13.19-3,13.08-3,12.29-16.57-.18-3-1.28-4-4-4.53-4.74-.91-9.4-2.19-14.11-3.21-4.26-.92-6.7-3.36-7.72-7.68-1.6-6.81-3.39-13.58-5.46-20.26-1.42-4.6-.47-8.13,3.08-11.3,4.39-3.92,8.6-8,13.1-12.28C431.5,246.66,428.72,241.86,425.82,236.88ZM361.46,619.23c3-19.44-9.39-32.51-27.17-31.85-19.59.74-39.24.09-58.86.2-17.44.09-28.52,14.25-24.77,31.65Zm-278.72,0h110.8c3.83-17.4-7.23-31.59-24.69-31.68-20.4-.11-40.79-.05-61.19,0a28.6,28.6,0,0,0-6.92.73C87.53,591.68,81.06,602.71,82.74,619.26Zm446.34,0c3.12-19.75-9.74-32.49-27.06-31.83-19.44.74-38.92.12-58.38.19-17.9.06-28.84,13.67-25.33,31.64ZM305.39,507.76a31.84,31.84,0,0,0-31.26,32.73c.5,17.21,15.26,31.45,32.16,31a32.08,32.08,0,0,0,31.46-33.09C337.14,521.13,322.48,507.24,305.39,507.76ZM106.52,539.43A32.05,32.05,0,0,0,138,571.53c17.24.34,32.26-14.61,32.19-32a31.86,31.86,0,0,0-63.71-.06Zm398.86.68a31.85,31.85,0,1,0-63.7-.83c-.25,17.25,13.86,31.68,31.51,32.23C490.25,572.05,505.05,557.61,505.38,540.11Z" transform="translate(-66.45 -156.63)"/><path class="cls-1" d="M66.45,276.12H82.06V292H66.45Z" transform="translate(-66.45 -156.63)"/><path class="cls-1" d="M66.45,307.93h15.6v15.9H66.45Z" transform="translate(-66.45 -156.63)"/><path class="cls-1" d="M66.45,339.73H82v15.91H66.45Z" transform="translate(-66.45 -156.63)"/><path class="cls-1" d="M529.75,291.78V276.46h15.4v15.32Z" transform="translate(-66.45 -156.63)"/><path class="cls-1" d="M98.45,323.64V308.4h15.47v15.24Z" transform="translate(-66.45 -156.63)"/><path class="cls-1" d="M513.27,323.69H498V308.34h15.26Z" transform="translate(-66.45 -156.63)"/><path class="cls-1" d="M529.72,323.6V308.27h15.34V323.6Z" transform="translate(-66.45 -156.63)"/><path class="cls-1" d="M545.17,355.65h-15.3V340.24h15.3Z" transform="translate(-66.45 -156.63)"/><path class="cls-1" d="M306,419.82C249.09,420,202.07,373,202.15,316s46.38-103.33,103.52-103.6,103.88,46.29,104.08,103.49C410,372.82,363.2,419.66,306,419.82Zm68.72-50.11c26.41-31.27,27.44-86.19-11.89-120.53-36.16-31.58-93.46-26.79-124.58,11.06s-21.66,87.21-.92,109.09c6.41-16.87,18.27-28.25,35.08-34.55-12.85-19.75-14.37-23.49-14.25-35.34a45.12,45.12,0,0,1,15.42-34.34c19.4-17.39,44.86-17.41,64.44-.28a44.91,44.91,0,0,1,15.38,29.09c1.87,15.63-3,29.16-14.41,40.7C356.35,341.08,368.17,352.5,374.73,369.71Zm-68.34-22.53-.09,1c-6.38,0-12.79-.3-19.15.05-17.88,1-33.46,15.23-36.07,32.93a5.87,5.87,0,0,0,1.85,4.56c29.51,23.87,75.94,23.93,105.87.14,1.17-.93,2.31-3.13,2.06-4.47-2.94-15.48-11.62-26.76-26.83-31.08C325.23,347.84,315.63,348.14,306.39,347.18Zm31.4-46.89A31.84,31.84,0,1,0,305.74,332C323,332.29,337.67,317.73,337.79,300.29Z" transform="translate(-66.45 -156.63)"/></svg>